<?xml version="1.0" encoding="UTF-8"?>
<svg id="Ebene_2" data-name="Ebene 2" xmlns="http://www.w3.org/2000/svg" viewBox="0 0 1386.5 463.6">
  <defs>
    <style>
      .cls-1 {
        fill: #0d9d69;
      }

      .cls-2 {
        isolation: isolate;
      }

      .cls-3 {
        fill: #fff;
      }

      .cls-4 {
        fill: #333;
      }
    </style>
  </defs>
  <g id="Ebene_1-2" data-name="Ebene 1">
    <g id="Layer_1" data-name="Layer 1">
      <path class="cls-1" d="M1350.3,258.8h-649.8v204.8l77.5-61h572.3c19.5,0,35.3-15.8,35.3-35.3v-73.2c0-19.5-15.8-35.3-35.3-35.3h0Z"/>
      <g>
        <g>
          <path class="cls-1" d="M617.8,126.2v53.1h-29.1V0H42.3C18.9,0,0,18.9,0,42.3v141.7c0,23.4,19,42.3,42.3,42.3h518.2l111,92.9V126.2h-53.7ZM152.7,179.3l-12.1-29.6h-55.9l-12.1,29.6h-29.6L99.6,46.2h26.8l56.6,133.1h-30.4.1ZM330.9,179.3h-28.9v-86.3l-37.2,56.4h-.8l-36.8-55.9v85.7h-28.5V47h31.3l34.7,55.9,34.7-55.9h31.3v132.2l.2.1ZM457.9,73.9h-40.2v105.4h-29.1v-105.4h-40.2v-26.8h109.5v26.8h0ZM568.2,140.2c0,26.2-20,41-48.5,41s-40.2-7-56.1-21.1l17.2-20.6c11.9,9.8,24.3,16.1,39.5,16.1s19.1-4.7,19.1-12.5v-.4c0-7.4-4.5-11.1-26.6-16.8-26.6-6.8-43.8-14.2-43.8-40.4v-.4c0-24,19.3-39.8,46.3-39.8s35.7,6,49.1,16.8l-15.1,21.9c-11.7-8.1-23.2-13-34.4-13s-17,5.1-17,11.5v.4c0,8.7,5.7,11.5,28.5,17.4,26.8,7,41.9,16.6,41.9,39.6v.4h0l-.1-.1Z"/>
          <polygon class="cls-1" points="95.1 123.9 130.2 123.9 112.7 81.1 95.1 123.9"/>
        </g>
        <g>
          <path class="cls-4" d="M1012.9,73.3h-22.5v79.7h22.5c23.8,0,39.8-16.1,39.8-39.5v-.4c0-23.4-16.1-39.8-39.8-39.8Z"/>
          <path class="cls-4" d="M1344.1,0h-726.3v99.4h53.6v-52.3h29.1v179.3h643.7c23.4,0,42.3-18.9,42.3-42.3V42.4c0-23.4-18.9-42.3-42.3-42.3h0l-.1-.1ZM828.1,179.3h-100.6V47.1h99.7v25.9h-70.8v26.8h62.3v25.9h-62.3v27.8h71.7v25.9h0v-.1ZM944.2,179.3h-95V47.1h29.1v105.7h65.9v26.5ZM1083.1,113.2c0,37.2-28.7,66.1-70.2,66.1h-51.5V47.1h51.5c41.5,0,70.2,28.5,70.2,65.7v.4ZM1204.8,179.3h-100.6V47.1h99.7v25.9h-70.8v26.8h62.3v25.9h-62.3v27.8h71.7v25.9h0v-.1ZM1343.4,179.3h-24.7l-64-84v84h-28.7V47.1h26.8l61.9,81.4V47.1h28.7v132.2h0Z"/>
        </g>
      </g>
      <g class="cls-2">
        <g class="cls-2">
          <g class="cls-2">
            <path class="cls-3" d="M754.82,367.1c-9,0-19.08-3-27.6-9.72l7.8-12c6.96,5.04,14.28,7.68,20.28,7.68,5.28,0,7.68-1.92,7.68-4.8v-.24c0-3.96-6.24-5.28-13.32-7.44-9-2.64-19.2-6.84-19.2-19.32v-.24c0-13.08,10.56-20.4,23.52-20.4,8.16,0,17.04,2.76,24,7.44l-6.96,12.6c-6.36-3.72-12.72-6-17.4-6-4.44,0-6.72,1.92-6.72,4.44v.24c0,3.6,6.12,5.28,13.08,7.68,9,3,19.44,7.32,19.44,19.08v.24c0,14.28-10.68,20.76-24.6,20.76Z"/>
          </g>
        </g>
        <g class="cls-2">
          <g class="cls-2">
            <path class="cls-3" d="M829.06,365.9v-9.12c-4.2,5.4-9.6,10.32-18.84,10.32-13.8,0-21.84-9.12-21.84-23.88v-41.64h18.24v35.88c0,8.64,4.08,13.08,11.04,13.08s11.4-4.44,11.4-13.08v-35.88h18.24v64.32h-18.24Z"/>
          </g>
        </g>
        <g class="cls-2">
          <g class="cls-2">
            <path class="cls-3" d="M895.94,367.1c-9.72,0-15.72-4.44-20.04-9.6v27.6h-18.24v-83.52h18.24v9.24c4.44-6,10.56-10.44,20.04-10.44,15,0,29.28,11.76,29.28,33.24v.24c0,21.48-14.04,33.24-29.28,33.24ZM906.98,333.62c0-10.68-7.2-17.76-15.72-17.76s-15.6,7.08-15.6,17.76v.24c0,10.68,7.08,17.76,15.6,17.76s15.72-6.96,15.72-17.76v-.24Z"/>
          </g>
        </g>
        <g class="cls-2">
          <g class="cls-2">
            <path class="cls-3" d="M994.82,340.1h-44.76c1.8,8.28,7.56,12.6,15.72,12.6,6.12,0,10.56-1.92,15.6-6.6l10.44,9.24c-6,7.44-14.64,12-26.28,12-19.32,0-33.6-13.56-33.6-33.24v-.24c0-18.36,13.08-33.48,31.8-33.48,21.48,0,31.32,16.68,31.32,34.92v.24c0,1.8-.12,2.88-.24,4.56ZM963.74,315.02c-7.56,0-12.48,5.4-13.92,13.68h27.48c-1.08-8.16-5.88-13.68-13.56-13.68Z"/>
          </g>
        </g>
        <g class="cls-2">
          <g class="cls-2">
            <path class="cls-3" d="M1040.46,319.46c-12.12,0-19.56,7.32-19.56,22.68v23.76h-18.24v-64.32h18.24v12.96c3.72-8.88,9.72-14.64,20.52-14.16v19.08h-.96Z"/>
          </g>
        </g>
        <g class="cls-2">
          <g class="cls-2">
            <path class="cls-3" d="M1103.28,366.98c-11.16,0-18.72-4.44-18.72-19.32v-30.48h-7.68v-15.6h7.68v-16.44h18.24v16.44h15.12v15.6h-15.12v27.48c0,4.2,1.8,6.24,5.88,6.24,3.36,0,6.36-.84,9-2.28v14.64c-3.84,2.28-8.28,3.72-14.4,3.72Z"/>
          </g>
        </g>
        <g class="cls-2">
          <g class="cls-2">
            <path class="cls-3" d="M1159.92,367.34c-19.92,0-34.68-14.76-34.68-33.24v-.24c0-18.48,14.88-33.48,34.92-33.48s34.68,14.76,34.68,33.24v.24c0,18.48-14.88,33.48-34.92,33.48ZM1176.84,333.86c0-9.48-6.84-17.76-16.92-17.76s-16.68,8.04-16.68,17.52v.24c0,9.48,6.84,17.76,16.92,17.76s16.68-8.04,16.68-17.52v-.24Z"/>
          </g>
        </g>
        <g class="cls-2">
          <g class="cls-2">
            <path class="cls-3" d="M1238.42,367.34c-19.92,0-34.68-14.76-34.68-33.24v-.24c0-18.48,14.88-33.48,34.92-33.48s34.68,14.76,34.68,33.24v.24c0,18.48-14.88,33.48-34.92,33.48ZM1255.34,333.86c0-9.48-6.84-17.76-16.92-17.76s-16.68,8.04-16.68,17.52v.24c0,9.48,6.84,17.76,16.92,17.76s16.68-8.04,16.68-17.52v-.24Z"/>
            <path class="cls-3" d="M1287.38,365.9v-87.6h18.24v87.6h-18.24Z"/>
          </g>
        </g>
        <g class="cls-2">
          <g class="cls-2">
            <path class="cls-3" d="M1333.32,367.1c-9,0-19.08-3-27.6-9.72l7.8-12c6.96,5.04,14.28,7.68,20.28,7.68,5.28,0,7.68-1.92,7.68-4.8v-.24c0-3.96-6.24-5.28-13.32-7.44-9-2.64-19.2-6.84-19.2-19.32v-.24c0-13.08,10.56-20.4,23.52-20.4,8.16,0,17.04,2.76,24,7.44l-6.96,12.6c-6.36-3.72-12.72-6-17.4-6-4.44,0-6.72,1.92-6.72,4.44v.24c0,3.6,6.12,5.28,13.08,7.68,9,3,19.44,7.32,19.44,19.08v.24c0,14.28-10.68,20.76-24.6,20.76Z"/>
          </g>
        </g>
      </g>
      <rect class="cls-3" x="671.4" y="226.4" width="29.1" height="29.1"/>
    </g>
  </g>
</svg>