<?xml version="1.0" encoding="UTF-8"?>
<svg id="Ebene_2" data-name="Ebene 2" xmlns="http://www.w3.org/2000/svg" viewBox="0 0 2458.98 849.31">
  <defs>
    <style>
      .cls-1 {
        fill: #0d9d69;
      }

      .cls-2 {
        fill: #0d9d69;
      }

      .cls-3, .cls-4 {
        isolation: isolate;
      }

      .cls-4 {
        fill: #1d1d1b;
        font-family: Gotham-Bold, Gotham;
        font-size: 180.04px;
        font-weight: 700;
      }

      .cls-5 {
        letter-spacing: 0em;
      }

      .cls-6 {
        letter-spacing: -.02em;
      }

      .cls-7 {
        fill: #333;
      }

      .cls-8 {
        fill: #333;
      }
    </style>
  </defs>
  <g id="Ebene_1-2" data-name="Ebene 1">
    <g id="Layer_1" data-name="Layer 1">
      <g>
        <g>
          <path class="cls-2" d="M1673.15,656.31v53.1h-29.1v-179.3h-546.4c-23.4,0-42.3,18.9-42.3,42.3v141.7c0,23.4,19,42.3,42.3,42.3h518.2l111,92.9v-193h-53.7ZM1208.05,709.41l-12.1-29.6h-55.9l-12.1,29.6h-29.6l56.6-133.1h26.8l56.6,133.1h-30.4.1ZM1386.25,709.41h-28.9v-86.3l-37.2,56.4h-.8l-36.8-55.9v85.7h-28.5v-132.2h31.3l34.7,55.9,34.7-55.9h31.3v132.2l.2.1ZM1513.25,604.01h-40.2v105.4h-29.1v-105.4h-40.2v-26.8h109.5v26.8h0ZM1623.55,670.31c0,26.2-20,41-48.5,41s-40.2-7-56.1-21.1l17.2-20.6c11.9,9.8,24.3,16.1,39.5,16.1s19.1-4.7,19.1-12.5v-.4c0-7.4-4.5-11.1-26.6-16.8-26.6-6.8-43.8-14.2-43.8-40.4v-.4c0-24,19.3-39.8,46.3-39.8s35.7,6,49.1,16.8l-15.1,21.9c-11.7-8.1-23.2-13-34.4-13s-17,5.1-17,11.5v.4c0,8.7,5.7,11.5,28.5,17.4,26.8,7,41.9,16.6,41.9,39.6v.4h0l-.1-.1Z"/>
          <polygon class="cls-2" points="1150.45 654.01 1185.55 654.01 1168.05 611.21 1150.45 654.01"/>
        </g>
        <g>
          <path class="cls-7" d="M2068.25,603.41h-22.5v79.7h22.5c23.8,0,39.8-16.1,39.8-39.5v-.4c0-23.4-16.1-39.8-39.8-39.8Z"/>
          <path class="cls-8" d="M2399.45,530.11h-726.3v99.4h53.6v-52.3h29.1v179.3h643.7c23.4,0,42.3-18.9,42.3-42.3v-141.7c0-23.4-18.9-42.3-42.3-42.3h0l-.1-.1ZM1883.45,709.41h-100.6v-132.2h99.7v25.9h-70.8v26.8h62.3v25.9h-62.3v27.8h71.7v25.9h0v-.1ZM1999.55,709.41h-95v-132.2h29.1v105.7h65.9v26.5ZM2138.45,643.31c0,37.2-28.7,66.1-70.2,66.1h-51.5v-132.2h51.5c41.5,0,70.2,28.5,70.2,65.7v.4ZM2260.15,709.41h-100.6v-132.2h99.7v25.9h-70.8v26.8h62.3v25.9h-62.3v27.8h71.7v25.9h0v-.1ZM2398.75,709.41h-24.7l-64-84v84h-28.7v-132.2h26.8l61.9,81.4v-81.4h28.7v132.2h0Z"/>
        </g>
      </g>
      <g class="cls-3">
        <g class="cls-3">
          <text class="cls-4" transform="translate(786.93 709.08)"><tspan class="cls-6" x="0" y="0">b</tspan><tspan class="cls-5" x="117.02" y="0">y</tspan></text>
        </g>
      </g>
    </g>
  </g>
  <g id="Ebene_2-2" data-name="Ebene 2">
    <polygon class="cls-1" points="731.76 612.58 731.76 479.63 590.07 479.63 731.76 612.58"/>
    <g>
      <path class="cls-1" d="M1927.44,197.57c-34.44,0-66.96,26.71-81.02,58.2l-.36.8c-14.07,31.49-3.71,59,29.67,59s67.06-26.71,81.03-58.2l.35-.8c13.96-31.49,3.59-59-29.67-59Z"/>
      <path class="cls-1" d="M1664.57,197.57c-34.44,0-67.17,26.71-81.49,58.2l-.36.8c-14.32,31.49-4.17,59,29.2,59s67.28-26.71,81.49-58.2l.36-.8c14.21-31.49,4.06-59-29.2-59Z"/>
      <path class="cls-1" d="M971.51,193.99c-24.94,0-49.69,17.94-67.52,45.44h90.77c9.24-27.11,2.08-45.44-23.26-45.44Z"/>
      <path class="cls-1" d="M719.2,196.78c-28.11,0-62.82,23.52-79.96,59l-.38.8c-17.14,35.48-5.06,59,23.15,59s63.14-23.12,80.36-59l.38-.8c17.03-35.48,4.56-59-23.55-59Z"/>
      <path class="cls-1" d="M2402.28,0H56.7C25.39,0,0,25.39,0,56.7v370.67c0,31.32,25.39,56.7,56.7,56.7h2345.57c31.32,0,56.7-25.39,56.7-56.7V56.7c0-31.32-25.39-56.7-56.7-56.7ZM236.08,233.85c24.79,9.97,52.2,24.32,32.92,63.38l-.39.8c-23.41,47.44-69.45,68.96-115.61,68.96-29.84,0-58.31-9.97-75.41-32.29l45.69-39.86c14.7,16.74,34.58,25.51,54.45,25.51,17.48,0,28.59-6.38,33.33-15.95l.39-.8c6.51-13.15-11.96-17.54-31.81-24.71-25.4-8.77-52.17-22.72-31.51-64.18l.4-.8c21.66-43.45,68.56-67.77,111.25-67.77,26.88,0,51.6,9.17,66.85,24.71l-43.64,41.85c-14.87-12.36-32.1-19.93-47.54-19.93s-25.33,6.38-29.49,14.75l-.4.8c-5.94,11.96,11.49,17.54,30.52,25.51ZM413.19,363l14.79-30.29c-22.68,17.94-48.57,34.28-79.21,34.28-45.76,0-57.5-30.29-33.37-79.33l68.1-138.32h60.09l-58.46,119.19c-14.08,28.7-7.81,43.45,15.24,43.45s44.94-14.75,58.95-43.45l58.19-119.19h60.09l-103.93,213.66h-60.47ZM803.03,255.77l-.38.8c-34.11,71.35-99.34,110.42-149.88,110.42-32.23,0-45.01-14.75-51.05-31.89l-44.28,91.68h-60.59l134.51-277.44h60.09l-14.83,30.69c24.26-19.93,51.53-34.68,82.76-34.68,49.41,0,77.77,39.06,43.65,110.42ZM918.94,319.15c20.26,0,37.98-6.38,62-21.92l20.08,30.69c-31.53,24.71-67.32,39.86-105.92,39.86-64.06,0-89.93-45.04-58.74-110.42l.38-.8c29.1-60.99,96.14-111.21,157.8-111.21,70.75,0,77.08,55.41,48.55,116l-.38.8c-2.81,5.98-4.9,9.57-7.92,15.15h-148.02c-7.11,27.5,5.14,41.85,32.16,41.85ZM1240.54,208.74h-3.17c-40,0-75.92,24.32-99.78,75.34l-36.91,78.93h-60.47l100.3-213.66h60.09l-20.13,43.05c26.05-29.5,54.76-48.63,89.58-47.04l-29.51,63.38ZM1449.63,354.23c-16.19,7.57-33.11,12.36-53.4,12.36-37.01,0-55.28-14.75-32.52-64.18l46.63-101.25h-25.34l23.91-51.82h25.3l25.15-54.61h59.99l-25.05,54.61h49.81l-23.69,51.82h-49.89l-41.88,91.28c-6.4,13.95-3.55,20.73,9.96,20.73,11.12,0,22.33-2.79,33.26-7.57l-22.24,48.63ZM1753.62,255.77l-.36.8c-27.59,61.39-99.33,111.21-165.78,111.21s-92.62-49.03-64.6-110.42l.36-.8c28.02-61.39,99.77-111.21,165.78-111.21s92.19,49.03,64.6,110.42ZM1851.69,367.79c-66.05,0-93.01-49.03-65.48-110.42l.36-.8c27.53-61.39,98.89-111.21,164.9-111.21s92.58,49.03,65.48,110.42l-.35.8c-27.1,61.39-98.45,111.21-164.9,111.21ZM2016.14,363l128.08-290.99h59.95l-127.55,290.99h-60.47ZM2327.05,212.72c-15.64-12.36-33.33-19.93-48.77-19.93s-24.94,6.38-28.58,14.75l-.35.8c-5.2,11.96,12.57,17.54,32.1,25.51,25.41,9.97,53.7,24.32,36.83,63.38l-.34.8c-20.49,47.44-65.2,68.96-111.36,68.96-29.84,0-58.92-9.97-77.4-32.29l43.23-39.86c15.74,16.74,36.15,25.51,56.02,25.51,17.48,0,28.2-6.38,32.34-15.95l.35-.8c5.7-13.15-13.04-17.54-33.34-24.71-25.94-8.77-53.57-22.72-35.46-64.18l.35-.8c18.98-43.45,64.38-67.77,107.07-67.77,26.88,0,52.16,9.17,68.38,24.71l-41.06,41.85Z"/>
    </g>
  </g>
</svg>